HIERARCHY
ROOT Hip
{
	OFFSET	0.0000	0.0000	0.0000
	CHANNELS 6 Xposition Yposition Zposition Xrotation Yrotation Zrotation
	JOINT LowerSpine
	{
		OFFSET	0.0000	8.3453	-5.1292
		CHANNELS 3 Xrotation Yrotation Zrotation
		JOINT MiddleSpine
		{
			OFFSET	10.8569	0.0000	0.0000
			CHANNELS 3 Xrotation Yrotation Zrotation
			JOINT Chest
			{
				OFFSET	15.2984	0.0000	0.0000
				CHANNELS 3 Xrotation Yrotation Zrotation
				JOINT Neck
				{
					OFFSET	25.6618	-0.5986	0.0000
					CHANNELS 3 Xrotation Yrotation Zrotation
					JOINT Head
					{
						OFFSET	8.8829	0.0000	0.0000
						CHANNELS 3 Xrotation Yrotation Zrotation
						End Site
						{
							OFFSET	19.7399	0.0000	0.0000
						}
					}
				}
				JOINT RClavicle
				{
					OFFSET	23.6878	0.0000	3.1584
					CHANNELS 3 Xrotation Yrotation Zrotation
					JOINT RShoulder
					{
						OFFSET	-15.5945	-3.9480	0.9870
						CHANNELS 3 Xrotation Yrotation Zrotation
						JOINT RForearm
						{
							OFFSET	-31.3370	0.0000	0.1974
							CHANNELS 3 Xrotation Yrotation Zrotation
							JOINT RHand
							{
								OFFSET	-26.4021	0.0000	0.0000
								CHANNELS 3 Xrotation Yrotation Zrotation
								End Site
								{
									OFFSET	-15.7919	-0.9870	0.0000
								}
							}
						}
					}
				}
				JOINT LClavicle
				{
					OFFSET	23.6878	0.0000	-3.1584
					CHANNELS 3 Xrotation Yrotation Zrotation
					JOINT LShoulder
					{
						OFFSET	-15.5945	-3.9480	-0.9870
						CHANNELS 3 Xrotation Yrotation Zrotation
						JOINT LForearm
						{
							OFFSET	-31.3370	0.0000	-0.1974
							CHANNELS 3 Xrotation Yrotation Zrotation
							JOINT LHand
							{
								OFFSET	-26.4021	0.0000	0.0000
								CHANNELS 3 Xrotation Yrotation Zrotation
								End Site
								{
									OFFSET	-15.7919	-0.9870	0.0000
								}
							}
						}
					}
				}
			}
		}
	}
	JOINT RThigh
	{
		OFFSET	-8.8829	0.4481	0.0000
		CHANNELS 3 Xrotation Yrotation Zrotation
		JOINT RShin
		{
			OFFSET	43.1316	0.0000	-0.4935
			CHANNELS 3 Xrotation Yrotation Zrotation
			JOINT RFoot
			{
				OFFSET	0.0000	-44.7256	-0.4047
				CHANNELS 3 Xrotation Yrotation Zrotation
				JOINT RToe
				{
					OFFSET	0.0000	-3.9332	12.1953
					CHANNELS 3 Xrotation Yrotation Zrotation
					End Site
					{
						OFFSET	6.7725	0.0000	0.0000
					}
				}
			}
		}
	}
	JOINT LThigh
	{
		OFFSET	8.8829	0.4481	0.0000
		CHANNELS 3 Xrotation Yrotation Zrotation
		JOINT LShin
		{
			OFFSET	43.1316	0.0000	0.4935
			CHANNELS 3 Xrotation Yrotation Zrotation
			JOINT LFoot
			{
				OFFSET	0.0000	-44.7256	0.4047
				CHANNELS 3 Xrotation Yrotation Zrotation
				JOINT LToe
				{
					OFFSET	0.0000	-3.9332	-12.1953
					CHANNELS 3 Xrotation Yrotation Zrotation
					End Site
					{
						OFFSET	6.7725	0.0000	0.0000
					}
				}
			}
		}
	}
}
MOTION
Frames:	11
Frame Time: 0.0169491000
	0.0000	93.1363	0.0000	0.000000	0.000000	0.000000	-89.999990	-90.000000	0.000000	0.000000	0.000000	0.000000	0.000000	0.000000	0.000000	0.000000	0.000000	0.000000	0.000000	0.000000	0.000000	89.999990	0.000003	-89.999990	0.129889	-2.857029	4.156837	0.255388	4.965908	-5.884634	0.000000	0.000000	0.000000	-89.999990	-0.000003	-89.999990	-0.129889	2.857029	4.156894	-0.255388	-4.965908	-5.884634	0.000000	0.000000	0.000000	-89.999990	90.000000	0.000000	89.999990	-0.000003	89.999990	0.000000	0.000000	0.000000	180.000000	90.000000	0.000000	-89.999990	90.000000	0.000000	-90.000000	-0.000003	89.999990	0.000000	0.000000	0.000000	180.000000	-90.000000	0.000000
	12.6402	93.8965	-18.4964	0.197326	4.866822	3.088053	-89.999990	-90.000000	0.000000	-0.263153	0.308339	0.639507	-0.890951	1.017212	2.137135	0.000000	0.000000	0.000000	0.000000	0.000000	0.000000	89.995400	-0.250833	-86.629930	-0.696604	-0.090633	-4.875134	0.676577	9.005198	-5.935890	0.000000	0.000000	0.000000	-90.001120	-0.022520	-90.302820	2.681265	-4.000546	-2.912882	-0.129612	-3.748104	-5.875077	0.000000	0.000000	0.000000	71.033910	88.636340	-154.528600	89.988750	1.250947	89.998830	-2.587559	-0.501612	-0.184272	174.595600	90.000000	0.000000	84.052830	88.810010	-173.447000	-89.924370	-8.423241	89.996950	0.050797	0.491287	-0.159506	188.736200	-90.000000	0.000000
	12.3644	93.5586	-18.5029	0.325445	4.474853	2.991588	-89.999990	-90.000000	0.000000	-0.249239	0.257077	0.514054	-0.839171	0.847870	1.717589	0.000000	0.000000	0.000000	0.000000	0.000000	0.000000	89.995180	-0.185683	-87.505020	-4.798456	-0.761236	-3.668862	0.862874	10.765670	-5.967878	0.000000	0.000000	0.000000	-90.001790	-0.034706	-90.466720	4.496245	-3.017934	-1.657358	-0.433002	-6.677702	-5.902652	0.000000	0.000000	0.000000	94.679860	89.192560	-178.520400	89.984060	1.773478	89.998430	-4.191479	-0.202299	-0.086090	175.931100	90.000000	0.000000	115.553000	89.029790	154.957100	-89.927470	-8.079605	89.996850	1.554029	-0.068091	0.013281	187.075300	-90.000000	0.000000
	11.9825	93.2300	-18.5016	0.558079	4.159907	2.713581	-89.999990	-90.000000	0.000000	-0.229489	0.212888	0.412179	-0.768517	0.700937	1.376263	0.000000	0.000000	0.000000	0.000000	0.000000	0.000000	89.995770	-0.129609	-88.258190	-8.324286	-1.661931	-2.242405	1.069114	12.690640	-6.009806	0.000000	0.000000	0.000000	-90.002330	-0.044260	-90.595300	5.986998	-1.569218	-0.863697	-0.771020	-9.900040	-5.951402	0.000000	0.000000	0.000000	168.951000	89.213200	106.716100	89.977940	2.457365	89.997960	-5.714595	-0.246372	-0.107152	177.115800	90.000000	0.000000	147.146700	89.224100	123.292700	-89.931850	-7.593592	89.996750	3.153324	-0.401647	0.126284	185.116900	-90.000000	0.000000
	11.6645	93.0224	-18.5208	0.777154	3.981534	2.391278	-89.999990	-90.000000	0.000000	-0.203341	0.177232	0.340319	-0.674820	0.579487	1.132565	0.000000	0.000000	0.000000	0.000000	0.000000	0.000000	89.996770	-0.085692	-88.848220	-9.973235	-2.682475	-0.894724	1.248241	14.339280	-6.051672	0.000000	0.000000	0.000000	-90.002630	-0.049470	-90.665470	7.017151	-0.234739	-0.587917	-1.057397	-12.582020	-6.007243	0.000000	0.000000	0.000000	-161.242600	88.663250	76.450940	89.972700	3.041414	89.997610	-6.792437	-0.603123	-0.250120	178.058000	90.000000	0.000000	-178.360200	89.331090	88.691100	-89.934560	-7.292182	89.996700	4.288424	-0.514078	0.158283	183.683400	-90.000000	0.000000
	11.5206	92.9413	-18.5372	0.830209	3.840565	2.204268	-89.999990	-90.000000	0.000000	-0.173278	0.146093	0.288436	-0.568079	0.472390	0.954409	0.000000	0.000000	0.000000	0.000000	0.000000	0.000000	89.997830	-0.051886	-89.302540	-10.166810	-3.435554	0.319402	1.362364	15.377240	-6.080937	0.000000	0.000000	0.000000	-90.002740	-0.051235	-90.689260	7.338572	0.644982	-0.259913	-1.276596	-14.598100	-6.058757	0.000000	0.000000	0.000000	-153.218800	88.382260	68.214680	89.969580	3.389204	89.997440	-7.401353	-0.908082	-0.363146	178.697600	90.000000	0.000000	-158.575600	89.299710	68.825840	-89.934220	-7.330539	89.996700	4.752840	-0.564212	0.168910	183.311100	-90.000000	0.000000
	11.5290	92.9238	-18.5343	0.749237	3.735545	2.194387	-89.999990	-90.000000	0.000000	-0.142514	0.117416	0.248751	-0.466445	0.379804	0.818079	0.000000	0.000000	0.000000	0.000000	0.000000	0.000000	89.998730	-0.028664	-89.614680	-10.145630	-4.073158	1.707281	1.491629	16.540450	-6.116480	0.000000	0.000000	0.000000	-90.002440	-0.046289	-90.622680	6.829111	1.317206	0.741420	-1.525119	-16.839580	-6.126100	0.000000	0.000000	0.000000	-154.314900	88.302070	69.432530	89.970050	3.337930	89.997460	-7.514123	-0.951155	-0.354195	178.803500	90.000000	0.000000	-160.415100	89.329590	70.707050	-89.933410	-7.420702	89.996720	4.753689	-0.475336	0.147800	183.570800	-90.000000	0.000000
	11.5588	92.9169	-18.5434	0.679712	3.678654	2.220019	-89.999990	-90.000000	0.000000	-0.116766	0.093651	0.216947	-0.382928	0.303864	0.695287	0.000000	0.000000	0.000000	0.000000	0.000000	0.000000	89.999290	-0.015308	-89.794170	-10.577120	-5.256310	3.672611	1.816332	19.399420	-6.216689	0.000000	0.000000	0.000000	-90.001900	-0.036822	-90.495330	5.932662	2.291003	2.356160	-1.905059	-20.164030	-6.246719	0.000000	0.000000	0.000000	-156.855300	88.240430	72.196300	89.972820	3.028685	89.997620	-7.331207	-0.862676	-0.314004	178.573700	90.000000	0.000000	-166.454300	89.384950	76.822640	-89.933750	-7.383434	89.996710	4.661955	-0.303795	0.097198	183.718300	-90.000000	0.000000
	11.5120	92.8966	-18.5343	0.593649	3.675741	2.141456	-89.999990	-90.000000	0.000000	-0.089882	0.066679	0.155282	-0.323318	0.243604	0.559111	0.000000	0.000000	0.000000	0.000000	0.000000	0.000000	89.999530	-0.009964	-89.866040	-11.405280	-7.406249	6.327610	2.426986	24.506050	-6.445205	0.000000	0.000000	0.000000	-90.001240	-0.024834	-90.334060	5.034041	3.620024	4.210876	-2.408614	-24.357910	-6.437608	0.000000	0.000000	0.000000	-153.615800	88.123500	69.158740	89.974940	2.791305	89.997760	-7.194026	-0.957094	-0.375285	178.397900	90.000000	0.000000	-154.810500	89.373250	65.314380	-89.934840	-7.261929	89.996690	4.770723	-0.381905	0.134751	183.518500	-90.000000	0.000000
	11.4283	92.8665	-18.4606	0.399983	3.809461	1.987064	-89.999990	-90.000000	0.000000	-0.082757	0.054918	0.114552	-0.286283	0.191699	0.393151	0.000000	0.000000	0.000000	0.000000	0.000000	0.000000	89.999530	-0.010085	-89.864440	-11.981320	-10.111530	9.522117	3.249574	30.772670	-6.827384	0.000000	0.000000	0.000000	-90.000620	-0.012958	-90.174310	4.021235	5.018295	6.464347	-2.990543	-28.877580	-6.698538	0.000000	0.000000	0.000000	-147.152600	87.940850	62.979820	89.975670	2.709565	89.997810	-7.184725	-1.276165	-0.521314	178.355300	90.000000	0.000000	-135.466400	89.241080	46.308590	-89.937090	-7.012469	89.996670	5.086682	-0.703142	0.264168	182.951400	-90.000000	0.000000
	11.3713	92.8523	-18.3736	0.178714	3.976797	1.857307	-89.999990	-90.000000	0.000000	-0.077707	0.039891	0.058801	-0.263268	0.135842	0.197709	0.000000	0.000000	0.000000	0.000000	0.000000	0.000000	89.999370	-0.013407	-89.819780	-11.565280	-12.741180	13.167080	4.158484	36.855230	-7.333911	0.000000	0.000000	0.000000	-90.000120	-0.002893	-90.038940	2.770824	6.425085	9.332889	-3.643351	-33.515240	-7.036955	0.000000	0.000000	0.000000	-142.795600	87.761250	58.911140	89.975600	2.716867	89.997810	-7.224107	-1.476963	-0.598075	178.461300	90.000000	0.000000	-125.180500	89.099490	36.433630	-89.939770	-6.714171	89.996650	5.268540	-0.843327	0.317056	182.499100	-90.000000	0.000000
